<svg width="42" height="42" viewBox="0 0 42 42" fill="none" xmlns="http://www.w3.org/2000/svg">
<circle cx="21" cy="21" r="21" fill="#34D0BE"/>
<path d="M14.5742 32.0393L14.1658 30.7057L11.8359 30.6854L11.4043 32.0117L10.2144 32.0014L12.5435 25.2214L13.6035 25.2306L15.8242 32.0502L14.5742 32.0393ZM12.504 28.6112L12.1855 29.5884L13.8254 29.6027L13.524 28.6201L13.039 26.8958L12.504 28.6112ZM19.781 32.0847L19.7869 31.4147C19.4779 31.6787 19.1895 31.8729 18.9218 31.9972C18.6541 32.1149 18.3836 32.1725 18.1102 32.1702C17.6569 32.1662 17.3083 32.0098 17.0643 31.701C16.8204 31.3856 16.7008 30.9478 16.7057 30.3879L16.7353 26.988L17.8853 26.998L17.8569 30.2579C17.852 30.8179 18.0562 31.0996 18.4695 31.1032C18.6362 31.1047 18.8165 31.0663 19.0106 30.988C19.2113 30.9097 19.4526 30.7585 19.7345 30.5342L19.7652 27.0144L20.9152 27.0244L20.871 32.0942L19.781 32.0847ZM25.5057 31.9646C25.3316 32.0431 25.1311 32.1047 24.904 32.1493C24.6769 32.2007 24.4467 32.2254 24.2134 32.2233C23.8267 32.22 23.5174 32.1373 23.2855 31.9752C23.0536 31.8132 22.8855 31.5884 22.7813 31.3008C22.6838 31.0133 22.6367 30.6862 22.6399 30.3196L22.6597 28.0396L21.8398 28.0325L21.8485 27.0325L22.6685 27.0397L22.68 25.7197L23.8299 25.7297L23.8184 27.0497L25.3984 27.0635L25.3896 28.0634L23.8097 28.0497L23.7898 30.3296C23.7872 30.6362 23.842 30.85 23.9543 30.971C24.0733 31.0854 24.2428 31.1435 24.4628 31.1455C24.5694 31.1464 24.6828 31.1374 24.803 31.1184C24.9299 31.0929 25.0703 31.0508 25.2241 30.9921L25.5057 31.9646ZM28.9444 28.0644C28.7777 28.0629 28.5874 28.1013 28.3734 28.1794C28.1593 28.2576 27.9046 28.412 27.6093 28.6428L27.5787 32.1527L26.4288 32.1426L26.4932 24.7429L27.6432 24.7529L27.6174 27.7128C27.9263 27.4555 28.2146 27.2713 28.4822 27.1603C28.7499 27.0493 29.0237 26.995 29.3037 26.9975C29.7903 27.0017 30.159 27.1616 30.4096 27.4771C30.6602 27.786 30.7831 28.2204 30.7782 28.7804L30.7486 32.1803L29.5986 32.1702L29.627 28.9104C29.6319 28.3504 29.4044 28.0684 28.9444 28.0644Z" fill="white"/>
<g style="mix-blend-mode:screen">
<mask id="mask0_0_1" style="mask-type:alpha" maskUnits="userSpaceOnUse" x="10" y="2" width="23" height="19">
<rect x="10" y="2.07019" width="21.9489" height="18.2881" transform="rotate(-0.183239 10 2.07019)" fill="#D9D9D9"/>
</mask>
<g mask="url(#mask0_0_1)">
<path d="M15.5067 13.5658C15.0037 13.5675 14.5728 13.4195 14.2139 13.1219C13.8545 12.8249 13.6741 12.4668 13.6728 12.0477C13.6714 11.6286 13.8495 11.2691 14.2071 10.9693C14.564 10.6699 14.9939 10.5195 15.4969 10.5178C15.9999 10.5162 16.4309 10.664 16.7897 10.961C17.1491 11.2586 17.3295 11.6169 17.3309 12.036C17.3322 12.4551 17.1541 12.8143 16.7966 13.1137C16.4396 13.4135 16.0097 13.5642 15.5067 13.5658ZM15.5164 16.6138C13.9922 16.6187 12.6952 16.1784 11.6254 15.2928C10.5556 14.4072 10.0187 13.3294 10.0146 12.0594C10.0106 10.7894 10.5406 9.70819 11.6047 8.81578C12.6688 7.92337 13.963 7.47472 15.4872 7.46985C16.5084 7.46658 17.4352 7.67317 18.2676 8.08961C19.0993 8.50606 19.7601 9.0564 20.2501 9.74064L28.298 9.7149L31.0489 11.9921L26.9444 15.4343L25.1117 14.2971L23.2863 15.446L21.3393 14.3092L20.2647 14.3126C19.7791 15 19.1218 15.5545 18.2928 15.9763C17.4631 16.3981 16.5377 16.6106 15.5164 16.6138ZM15.5116 15.0898C16.3651 15.0871 17.1153 14.8688 17.762 14.4349C18.4081 14.0011 18.8368 13.4536 19.0481 12.7925L21.906 12.7834L23.2345 13.5602L25.1056 12.3921L26.7323 13.4347L28.4424 12.0005L27.5255 11.2414L19.0432 11.2685C18.8277 10.6088 18.3955 10.0641 17.7466 9.63434C17.0972 9.20462 16.3456 8.99112 15.4921 8.99385C14.4861 8.99706 13.6259 9.29827 12.9114 9.89746C12.1969 10.4966 11.841 11.2153 11.8437 12.0535C11.8464 12.8917 12.2069 13.6081 12.9251 14.2028C13.6434 14.7974 14.5056 15.0931 15.5116 15.0898Z" fill="white"/>
</g>
</g>
</svg>
